<?xml version="1.0" encoding="utf-8"?>
<!-- Generator: Adobe Illustrator 13.0.0, SVG Export Plug-In . SVG Version: 6.00 Build 14948)  -->
<!DOCTYPE svg PUBLIC "-//W3C//DTD SVG 1.1//EN" "http://www.w3.org/Graphics/SVG/1.1/DTD/svg11.dtd">
<svg version="1.1" id="Layer_1" xmlns="http://www.w3.org/2000/svg" xmlns:xlink="http://www.w3.org/1999/xlink" x="0px" y="0px"
	 width="512px" height="512px" viewBox="0 0 512 512" enable-background="new 0 0 512 512" xml:space="preserve">
<path id="calendar-5-icon" fill="#333333" d="M197.453,295.951h-58.905v-58.904h58.905V295.951z M286.452,237.047h-58.904v58.904
	h58.904V237.047z M375.452,237.047h-58.905v58.904h58.905V237.047z M197.453,323.047h-58.905v58.906h58.905V323.047z
	 M286.452,323.047h-58.904v58.906h58.904V323.047z M375.451,323.047h-58.904v58.906h58.904V323.047z M397.389,118.131
	c0,10.035-8.135,18.171-18.17,18.171s-18.171-8.136-18.171-18.171V72.402c0-10.034,8.136-18.17,18.171-18.17
	s18.17,8.136,18.17,18.17V118.131z M151.889,72.32c0-10.035-8.136-18.171-18.17-18.171c-10.036,0-18.171,8.136-18.171,18.171v45.728
	c0,10.035,8.135,18.171,18.171,18.171c10.034,0,18.17-8.136,18.17-18.171V72.32z M419.352,98.851v18.616
	c0,22.13-18.004,40.134-40.133,40.134c-22.13,0-40.134-18.004-40.134-40.134V98.851H173.852v18.533
	c0,22.13-18.004,40.134-40.133,40.134c-22.13,0-40.134-18.004-40.134-40.134V98.851H50v359h412v-359H419.352z M422,417.852H90
	V195.38h332V417.852z"/>
</svg>
