<svg xmlns="http://www.w3.org/2000/svg" xml:space="preserve" viewBox="0 0 500 500"><path vector-effect="non-scaling-stroke" d="M261.773 105.537c32.681 2.947 62.206 16.878 84.83 38.077l11.469-10.694a169.455 169.455 0 0 0-8.279-7.09c-5.582-4.49-6.464-12.653-1.975-18.234 4.482-5.582 12.646-6.464 18.228-1.982 14.191 11.393 26.563 24.522 37.144 39.312 4.146 5.838 2.787 13.93-3.044 18.078-5.838 4.146-13.931 2.787-18.077-3.044a167.94 167.94 0 0 0-6.231-8.14l-11.98 11.174c15.786 21.31 25.794 47.164 27.702 75.234h31.989c-.3-3.917-.73-7.79-1.282-11.667-1.01-7.09 3.926-13.66 11.018-14.67 7.097-1.009 13.668 3.92 14.677 11.017 2.608 18.084 2.704 35.922.34 54.03-.926 7.097-7.423 12.097-14.521 11.173-7.097-.926-12.097-7.423-11.174-14.521.406-3.11.762-6.231.949-9.36h-32.561c-3.058 27.257-13.774 52.198-29.941 72.62l13.905 12.97a172.672 172.672 0 0 0 7.007-9.376c4.063-5.89 12.133-7.37 18.025-3.307 5.892 4.063 7.364 12.14 3.301 18.03a198.592 198.592 0 0 1-36.598 39.826c-5.522 4.566-13.708 3.797-18.28-1.732-4.567-5.522-3.798-13.708 1.731-18.274a172.57 172.57 0 0 0 7.121-6.202l-14.078-13.126c-22.148 19.456-50.353 32.178-81.415 34.979v32.907a168.43 168.43 0 0 0 11.667-1.282c7.097-1.001 13.668 3.926 14.677 11.024 1.01 7.098-3.926 13.668-11.024 14.678-18.077 2.608-35.922 2.698-54.029.333-7.09-.926-12.097-7.423-11.174-14.52.926-7.098 7.43-12.097 14.527-11.174 2.984.393 6.105.71 9.352.95V390.64c-30.367-2.741-57.999-14.957-79.913-33.678l-12.682 11.823a174.368 174.368 0 0 0 7.127 6.202c5.522 4.566 6.291 12.755 1.725 18.274-4.573 5.525-12.756 6.298-18.28 1.732a198.92 198.92 0 0 1-36.599-39.826c-4.063-5.89-2.584-13.965 3.301-18.03 5.892-4.063 13.965-2.584 18.03 3.307a168.343 168.343 0 0 0 7.007 9.375l12.24-11.417c-16.859-20.709-28.047-46.222-31.184-74.171H76.444c.18 3 .556 6.368.95 9.359.925 7.097-4.078 13.594-11.175 14.52-7.097.927-13.594-4.075-14.52-11.172-2.366-18.107-2.269-35.945.34-54.03 1.008-7.097 7.58-12.026 14.676-11.017 7.09 1.01 12.026 7.58 11.018 14.67a176.386 176.386 0 0 0-1.282 11.667h29.525c1.958-28.77 12.426-55.211 28.898-76.825l-10.27-9.578c-2.306 2.847-4.387 5.562-6.226 8.139-4.153 5.83-12.246 7.19-18.077 3.044-5.838-4.146-7.197-12.24-3.05-18.078 10.581-14.79 22.953-27.919 37.144-39.312 5.582-4.482 13.745-3.6 18.234 1.982 4.482 5.582 3.6 13.745-1.982 18.234a169.534 169.534 0 0 0-8.279 7.09l10.028 9.352c22.433-20.442 51.392-33.85 83.374-36.734V76.441c-3.247.243-6.368.559-9.352.948-7.097.926-13.602-4.075-14.527-11.172-.926-7.09 4.083-13.594 11.174-14.521 18.107-2.358 35.952-2.268 54.03.34 7.096 1.009 12.032 7.58 11.023 14.678-1.009 7.097-7.58 12.025-14.677 11.016a168.623 168.623 0 0 0-11.667-1.274v29.087zm33.964 86.009c22.094 0 40.016 17.917 40.016 40.011s-17.92 40.015-40.016 40.015c-22.02 0-40.012-17.994-40.012-40.015 0-22.087 17.921-40.011 40.012-40.011zm0 25.996c-7.74 0-14.015 6.271-14.015 14.015 0 7.82 6.202 14.018 14.015 14.018 7.746 0 14.015-6.27 14.015-14.018 0-7.746-6.262-14.015-14.015-14.015zm-84.435 26.797c22.094 0 40.012 17.918 40.012 40.012s-17.918 40.014-40.012 40.014c-22.02 0-40.016-17.993-40.016-40.014 0-22.087 17.921-40.012 40.016-40.012zm0 25.998c-7.746 0-14.015 6.268-14.015 14.015 0 7.82 6.194 14.018 14.015 14.018 7.746 0 14.015-6.271 14.015-14.018 0-7.746-6.268-14.015-14.015-14.015zm3.926-109.848c18.441 0 33.397 14.964 33.397 33.397 0 18.41-14.987 33.398-33.397 33.398-18.377 0-33.39-15.02-33.39-33.398 0-18.406 14.986-33.397 33.39-33.397zm0 26.004a7.347 7.347 0 0 0-7.394 7.393c0 4.146 3.247 7.394 7.394 7.394 4.13 0 7.4-3.27 7.4-7.394a7.387 7.387 0 0 0-7.4-7.393zm116.37-21.227c-21.19-21.191-50.479-34.303-82.825-34.303-32.352 0-61.64 13.112-82.83 34.303-21.192 21.19-34.304 50.478-34.304 82.83 0 32.348 13.112 61.632 34.303 82.824 21.191 21.192 50.48 34.303 82.831 34.303 32.348 0 61.633-13.112 82.825-34.303 21.191-21.19 34.303-50.478 34.303-82.824 0-32.35-13.112-61.638-34.303-82.83z" fill="#fff"/><path vector-effect="non-scaling-stroke" d="M-120.219 543.802a2.392 2.392 0 0 1-1.039.25c-.571 0-1.018-.151-1.35-.458-.333-.317-.5-.748-.5-1.288 0-.55.167-.982.5-1.289.332-.317.779-.478 1.35-.478a2.393 2.393 0 0 1 1.039.25v.706a2.494 2.494 0 0 0-.478-.249 1.569 1.569 0 0 0-.498-.083c-.307 0-.551.104-.728.312-.181.197-.27.472-.27.83 0 .349.089.624.27.832.177.197.421.291.728.291.176 0 .343-.026.498-.083.151-.052.312-.135.478-.25zM-117.617 542.154a.755.755 0 0 0-.208-.083 1.556 1.556 0 0 0-.229-.021c-.208 0-.369.073-.478.208-.114.14-.166.332-.166.582v1.163h-.81v-2.556h.81v.437c.11-.167.229-.28.353-.354a.935.935 0 0 1 .5-.124H-117.618zM-114.68 542.705v.25h-1.89c.01.181.072.322.187.415.124.099.29.146.498.146.177 0 .359-.021.54-.063.177-.052.36-.135.541-.25v.645c-.197.073-.39.12-.582.146a2.51 2.51 0 0 1-.561.062c-.473 0-.831-.114-1.08-.353-.25-.234-.375-.562-.375-.977 0-.416.125-.738.374-.977.25-.234.593-.353 1.04-.353.384 0 .696.12.935.353.249.24.374.556.374.956zm-.83-.27c0-.15-.052-.27-.146-.353a.454.454 0 0 0-.353-.146.542.542 0 0 0-.374.125.586.586 0 0 0-.187.374zM-112.892 542.85c-.182 0-.312.032-.395.084a.284.284 0 0 0-.124.249c0 .114.03.197.104.25.067.057.166.083.29.083.151 0 .276-.052.375-.167.109-.109.166-.25.166-.415v-.083zm1.247-.311v1.455h-.831v-.375a1.057 1.057 0 0 1-.374.333c-.125.068-.291.104-.499.104-.265 0-.478-.073-.644-.229-.156-.15-.229-.353-.229-.602 0-.291.094-.504.291-.645.208-.135.53-.207.977-.207h.478v-.063c0-.135-.057-.234-.166-.29-.1-.053-.25-.084-.458-.084-.182 0-.348.021-.498.063a1.8 1.8 0 0 0-.416.145v-.623c.177-.042.353-.068.52-.084.176-.026.358-.041.54-.041.457 0 .79.093.997.27.208.182.312.473.312.873zM-110.002 540.733v.707h.831v.582h-.831v1.08c0 .125.02.208.062.25.042.041.13.062.27.062h.437v.582h-.707c-.322 0-.55-.062-.686-.187-.14-.135-.207-.374-.207-.707v-1.08h-.395v-.582h.395v-.707zM-106.13 542.705v.25h-1.89c.01.181.072.322.187.415.124.099.29.146.498.146.177 0 .359-.021.54-.063.177-.052.36-.135.541-.25v.645c-.197.073-.39.12-.582.146a2.51 2.51 0 0 1-.561.062c-.473 0-.831-.114-1.08-.353-.25-.234-.375-.562-.375-.977 0-.416.125-.738.374-.977.25-.234.593-.353 1.04-.353.384 0 .696.12.935.353.249.24.374.556.374.956zm-.83-.27c0-.15-.052-.27-.146-.353a.454.454 0 0 0-.353-.146.542.542 0 0 0-.374.125.586.586 0 0 0-.187.374zM-103.773 541.807v-1.35h.831v3.532h-.83v-.374a1.057 1.057 0 0 1-.375.332.959.959 0 0 1-.457.104.98.98 0 0 1-.79-.374c-.197-.25-.29-.566-.29-.956 0-.384.093-.706.29-.956a.98.98 0 0 1 .79-.374c.166 0 .317.037.457.104.135.073.26.177.374.312zm-.54 1.663c.176 0 .311-.063.395-.188.093-.135.145-.322.145-.56 0-.25-.052-.437-.145-.562-.084-.124-.219-.187-.395-.187a.47.47 0 0 0-.395.187c-.083.125-.125.312-.125.561 0 .24.042.426.125.561a.47.47 0 0 0 .395.188zM-99.18 543.47c.177 0 .312-.063.395-.188.093-.135.145-.322.145-.56 0-.25-.052-.437-.145-.562-.083-.124-.218-.187-.395-.187-.182 0-.322.063-.416.187-.083.125-.124.312-.124.561 0 .24.041.426.124.561.094.125.234.187.416.187zm-.54-1.663c.109-.135.233-.239.374-.312.135-.067.296-.104.478-.104.301 0 .55.125.748.374.208.25.312.572.312.956 0 .39-.104.707-.312.956a.916.916 0 0 1-.748.374c-.182 0-.343-.036-.478-.104a.976.976 0 0 1-.374-.332v.374h-.81v-3.533h.81zM-97.52 541.449h.81l.686 1.745.582-1.745h.81l-1.08 2.805c-.1.275-.224.468-.375.582-.14.11-.327.166-.56.166h-.479v-.52h.27c.136 0 .234-.03.291-.082.068-.042.115-.12.146-.229l.02-.062zM-92.478 540.602h1.102l.768 1.808.79-1.808h1.102v3.387h-.832v-2.473l-.769 1.829h-.56l-.79-1.829v2.473h-.81zM-121.267 545.136v.54h-.436c-.125 0-.208.021-.25.063-.041.041-.062.114-.062.208v.166h.686v.582h-.686v1.974h-.81v-1.974h-.416v-.582h.416v-.166c0-.276.073-.478.228-.603.151-.135.385-.208.707-.208zM-119.017 546.814a.755.755 0 0 0-.208-.083 1.556 1.556 0 0 0-.229-.021c-.208 0-.369.073-.478.208-.114.14-.166.332-.166.582v1.163h-.81v-2.556h.81v.437c.11-.167.229-.28.353-.354a.935.935 0 0 1 .5-.124H-119.018zM-117.396 546.648c-.182 0-.322.062-.416.187-.098.124-.145.312-.145.56 0 .24.047.427.145.562.094.125.234.187.416.187.177 0 .312-.062.395-.187.093-.135.145-.322.145-.561 0-.25-.052-.437-.145-.561-.083-.125-.218-.187-.395-.187zm0-.582c.442 0 .78.12 1.018.353.25.24.374.561.374.977 0 .416-.124.743-.374.977-.239.239-.576.353-1.018.353-.447 0-.79-.114-1.039-.353-.239-.234-.353-.561-.353-.977 0-.416.114-.738.353-.977.25-.234.592-.353 1.04-.353zM-113.054 546.544a1 1 0 0 1 .374-.354.863.863 0 0 1 .457-.124c.301 0 .53.093.686.27.15.182.229.436.229.769v1.558h-.832v-1.371a.283.283 0 0 0 .021-.104c0-.177-.031-.312-.083-.395-.057-.083-.146-.125-.27-.125a.396.396 0 0 0-.353.187c-.084.125-.125.312-.125.561v1.247h-.831v-1.33c0-.275-.032-.457-.084-.54-.041-.083-.124-.125-.249-.125a.394.394 0 0 0-.353.208c-.083.125-.125.307-.125.54v1.247h-.81v-2.556h.81v.374c.094-.135.208-.239.333-.311a.964.964 0 0 1 .436-.104.826.826 0 0 1 .769.478zM-108.012 545.403v.707h.831v.582h-.831v1.08c0 .125.02.208.062.25.042.041.13.062.27.062h.437v.582h-.707c-.322 0-.55-.062-.686-.187-.14-.135-.207-.374-.207-.707v-1.08h-.395v-.582h.395v-.707zM-104.125 547.11v1.559h-.81v-1.185c0-.218-.01-.374-.021-.457a.557.557 0 0 0-.062-.187.358.358 0 0 0-.125-.125.461.461 0 0 0-.582.166c-.099.125-.145.307-.145.541v1.247h-.81v-3.533h.81v1.35c.124-.134.254-.238.394-.31a1.02 1.02 0 0 1 .458-.105c.29 0 .509.094.665.27.15.182.228.437.228.77zM-100.82 547.375v.25h-1.89c.01.181.072.322.187.415.124.099.29.146.498.146.177 0 .359-.021.54-.063.177-.052.36-.135.541-.25v.645c-.197.073-.39.12-.582.146a2.51 2.51 0 0 1-.561.062c-.473 0-.831-.114-1.08-.353-.25-.234-.375-.562-.375-.977 0-.416.125-.738.374-.977.25-.234.593-.353 1.04-.353.384 0 .696.12.935.353.249.24.374.556.374.956zm-.83-.27c0-.15-.052-.27-.146-.353a.454.454 0 0 0-.353-.146.542.542 0 0 0-.374.125.586.586 0 0 0-.187.374zM-98.529 545.272h.977l1.226 2.327v-2.327h.831v3.387h-.976l-1.247-2.327v2.327h-.81zM-93.446 546.648c-.182 0-.322.062-.416.187-.098.124-.145.312-.145.56 0 .24.047.427.145.562.094.125.234.187.416.187.177 0 .312-.062.395-.187.093-.135.145-.322.145-.561 0-.25-.052-.437-.145-.561-.083-.125-.218-.187-.395-.187zm0-.582c.442 0 .78.12 1.018.353.25.24.374.561.374.977 0 .416-.124.743-.374.977-.239.239-.576.353-1.018.353-.447 0-.79-.114-1.039-.353-.239-.234-.353-.561-.353-.977 0-.416.114-.738.353-.977.25-.234.592-.353 1.04-.353zM-91.475 547.673v-1.559h.81v1.663c.01.083.032.145.063.187a.47.47 0 0 0 .124.124.356.356 0 0 0 .187.042.502.502 0 0 0 .416-.187c.094-.135.145-.322.145-.561v-1.268h.811v2.556h-.81v-.374c-.125.156-.26.265-.395.333-.14.067-.291.104-.458.104-.29 0-.514-.089-.665-.27-.155-.177-.228-.442-.228-.79z"/></svg>