<?xml version="1.0" encoding="utf-8"?>
<!-- Generator: Adobe Illustrator 13.0.0, SVG Export Plug-In . SVG Version: 6.00 Build 14948)  -->
<!DOCTYPE svg PUBLIC "-//W3C//DTD SVG 1.1//EN" "http://www.w3.org/Graphics/SVG/1.1/DTD/svg11.dtd">
<svg version="1.1" id="Layer_1" xmlns="http://www.w3.org/2000/svg" xmlns:xlink="http://www.w3.org/1999/xlink" x="0px" y="0px"
	 width="512px" height="512px" viewBox="0 0 512 512" enable-background="new 0 0 512 512" xml:space="preserve">
<path id="currency-pound-icon" fill="#FFFFFF" d="M405.904,440.48l-23.787-69.428c-25.918,13.086-35.646,15.459-54.82,15.459
	c-22.123,0-41.064-8.363-66.801-13.572c-17.916-3.387-36.061-0.42-53.277,5.356c24.678-26.307,53.18-51.271,47.195-90.437h69.301
	v-59.118H242.83c-55.773-121.329,61.047-142.174,78.477-61.536l74.795-10.884C385.73,54.12,276.668,30.577,209.195,64.538
	c-63.688,34.558-83.395,101.66-63.779,164.204h-39.32v59.117h53.113c1.121,29.205,8.51,60.175-53.113,109.293L143.869,462
	c20.27-12.704,41.24-23.653,67.359-23.393c30.521,0,90.496,23.19,124.947,22.975C363.75,461.407,384.889,453.481,405.904,440.48z"/>
</svg>
