<?xml version="1.0" encoding="utf-8"?>
<!-- Generator: Adobe Illustrator 13.0.0, SVG Export Plug-In . SVG Version: 6.00 Build 14948)  -->
<!DOCTYPE svg PUBLIC "-//W3C//DTD SVG 1.1//EN" "http://www.w3.org/Graphics/SVG/1.1/DTD/svg11.dtd">
<svg version="1.1" id="Layer_1" xmlns="http://www.w3.org/2000/svg" xmlns:xlink="http://www.w3.org/1999/xlink" x="0px" y="0px"
	 width="512px" height="512px" viewBox="0 0 512 512" enable-background="new 0 0 512 512" xml:space="preserve">
<path id="sharethis-circle-outline-icon" fill="#333333" d="M256.417,90c44.34,0,86.026,17.267,117.38,48.62
	c31.354,31.354,48.62,73.04,48.62,117.38s-17.267,86.025-48.62,117.38c-31.354,31.353-73.04,48.62-117.38,48.62
	s-86.026-17.268-117.38-48.62c-31.354-31.354-48.62-73.04-48.62-117.38s17.267-86.026,48.62-117.38
	C170.391,107.267,212.077,90,256.417,90 M256.417,50c-113.771,0-206,92.229-206,206c0,113.771,92.229,206,206,206
	c113.771,0,206-92.229,206-206C462.417,142.229,370.188,50,256.417,50L256.417,50z M312.101,286.02
	c-11.82,0-22.452,5.099-29.813,13.213l-72.023-35.559c0.427-2.346,0.661-4.758,0.661-7.229c0-0.497-0.02-0.99-0.038-1.484
	l74.507-39.128c7.106,6.31,16.457,10.148,26.707,10.148c22.23,0,40.25-18.02,40.25-40.248c0-22.229-18.02-40.249-40.25-40.249
	c-22.229,0-40.248,18.02-40.248,40.249c0,1.66,0.113,3.292,0.31,4.901L199.77,228.65c-7.327-7.668-17.648-12.453-29.093-12.453
	c-22.23,0-40.249,18.02-40.249,40.249c0,22.227,18.019,40.248,40.249,40.248c9.362,0,17.972-3.205,24.81-8.567l76.379,37.708
	c-0.003,0.146-0.013,0.289-0.013,0.438c0,22.229,18.02,40.248,40.248,40.248c22.23,0,40.25-18.021,40.25-40.248
	C352.351,304.039,334.331,286.02,312.101,286.02z"/>
</svg>
